<svg width="1024" height="1024" xmlns="http://www.w3.org/2000/svg"><path style="fill:#F2FDFF;" d="M448 192a256 256 0 0 0-256 256 256 256 0 0 0 110.186 209.814A256 256 0 0 1 256 512a256 256 0 0 1 256-256 256 256 0 0 1 146.115 45.885A256 256 0 0 0 448 192z"/><path style="fill:#F2FDFF;" d="M703.98 256.033A320 320 0 0 1 768 448a320 320 0 0 1-320 320 320 320 0 0 1-191.42-64.584A320 320 0 0 0 512 832a320 320 0 0 0 320-320 320 320 0 0 0-128.02-255.967z"/><path style="fill:#F2FDFF;" d="M813.021 722.785a64 63.807 45 0 0-90.372-.136 64 63.807 45 0 0 .136 90.372 64 63.807 45 0 0 1.073.93l-.34.35 89.504 89.504a64 63.807 45 0 1-.137-90.373 64 63.807 45 0 1 89.293-.786l.348-.357z"/></svg>
