<svg width="128" height="128" viewBox="0 0 1024 1024" shape-rendering="crispEdges" xmlns="http://www.w3.org/2000/svg"><path style="fill:#F2FDFF;" d="M512 128a128 128 0 0 0-128 128 128 128 0 0 0 128 128v.084A64.427 63.57 45 0 1 575.994 448a64.427 63.57 45 0 1-63.137 64 64.427 63.57 45 0 1-.857-.084V512a32 32 0 0 0-32 32 32 32 0 0 0 32 32 128 128 0 0 0 128-128 128 128 0 0 0-128-128 64 64 0 0 1-64-64 64 64 0 0 1 64-64l64-32-64-32zm0 400a16 16 0 0 1 16 16 16 16 0 0 1-16 16 16 16 0 0 1-16-16 16 16 0 0 1 16-16z"/><path style="fill:#F2FDFF;" d="M186.422 895.756a64 64 0 0 0 69.334-58.178l39.046-446.295-52.6-133.091-74.913 121.935-39.045 446.295a64 64 0 0 0 58.178 69.334zm2.789-31.878a32 32 0 0 1-29.09-34.667 32 32 0 0 1 34.668-29.09 32 32 0 0 1 29.09 34.668 32 32 0 0 1-34.668 29.09z"/><path style="fill:#F2FDFF;" d="M283.252 320 256 331.313l207.139 395.435A64 64 0 0 0 448 768a64 64 0 0 0 48 61.85V896h32v-66.15A64 64 0 0 0 576 768a64 64 0 0 0-15.12-41.29L768 331.313 740.748 320 536.943 709.07A64 64 0 0 0 512 704a64 64 0 0 0-24.898 5.154L283.252 320z"/><path style="fill:#F2FDFF;" d="M843.113 265.723a64 64 0 0 1 51.915 74.141l-77.795 441.194L731.98 896l-40.801-137.169 77.794-441.194a64 64 0 0 1 74.141-51.914zm-5.556 31.514a32 32 0 0 0-37.07 25.957 32 32 0 0 0 25.956 37.07 32 32 0 0 0 37.07-25.957 32 32 0 0 0-25.956-37.07z"/></svg>
