<svg width="512" height="512" style="enable-background:new 0 0 512 512" xml:space="preserve" xmlns="http://www.w3.org/2000/svg"><g style="fill:#F2FDFF;"><path d="M459.88 383.95c-19.69 9.9-32.83 7.96-47.91-6.66-9.92-9.61-19.62-19.44-29.56-29.02-6.91-6.65-7.74-6.67-14.45-.16-8.78 8.51-17.21 17.39-26.03 25.86-22.32 21.4-48.83 22.26-71.99 1.87-10.9-9.6-20.94-20.17-32.47-31.37-8.96 8.61-17.46 16.66-25.83 24.85-14.19 13.89-30.81 21.46-51.01 20.81-18.95-.61-33.53-9.55-46.97-22.34 3.09-6.63 8.12-10.53 12.39-15.02 16.42-17.3 16.45-38.84-.06-55.88a809.44 809.44 0 0 0-17.57-17.59c-11.76-11.4-26.98-11.2-38.69.44-7.55 7.51-15.08 15.04-22.55 22.64-9.01 9.18-8.49 14.56-.32 24.15 17.98 21.11 25.93 10.5 37.78-2.34 5.43-5.88 5.17-13.12-.03-19.2-4.35-5.08-9.06-9.85-13.56-14.71 9.74-15.65 21.57-17.13 34.43-4.45 5.34 5.26 10.7 10.51 15.88 15.93 12.95 13.55 13.23 31.98.38 45.65-10 10.63-20.19 21.1-30.75 31.18-16.36 15.62-33.72 15.77-50.31.36-10.69-9.93-21-20.31-31.01-30.92-13.04-13.83-12.72-33.15.25-46.8.54-.57 1.06-1.18 1.67-1.67 13.38-10.84 21.56-22.33 17.48-42.01-4.04-19.49 5.45-36.84 19.62-50.99 22.33-22.31 44.48-44.81 66.86-67.05 23.4-23.26 68.11-24.4 91.89-1.76 19.14 18.22 37.39 37.37 56 56.15 1.05 1.06 1.73 2.48 3.17 4.58-15.46 15.44-30.75 30.75-46.1 46-4.51 4.48-8.7 9.14-11.03 15.19-4.31 11.2-4.31 22.27.46 33.39 1.53 3.57 4.34 6.65 4.55 11.73-15.44 4.91-30.9 4.24-43.53-5.89-23.08-18.52-43.36-40.2-63.58-61.79-5.66-6.04-7.08-13.56-4.33-21.4 6.83 6.32 13.32 12.47 19.97 18.45 11.62 10.44 20.64 10.35 32.05-.53 4.56-4.35 8.8-9.06 12.85-13.89 7.11-8.47 7.03-17.34-.35-25.55-5.01-5.57-10.29-10.93-15.82-15.98-7.9-7.2-17.8-7.42-25.61-.21-8.1 7.49-16.03 15.26-23.27 23.57-11.27 12.94-11.57 28.04.03 40.67 19.47 21.21 39.91 41.56 61.59 60.52 13.74 12.01 30.68 14.59 47.86 9.94 7.82-2.12 12.24-.55 17.42 4.84 9.29 9.66 18.95 19.02 29.05 27.81 16.36 14.24 38.79 14.25 54.91-.54 14.81-13.59 29.07-27.86 42.75-42.58 13.86-14.91 14.22-32.94 1.24-49.51-11.21-14.3-24.86-26.44-38.09-38.83-8.54-7.99-22.6-7.33-31.51.7a269.03 269.03 0 0 0-21.66 21.85c-9.18 10.4-8.81 24.2.6 34.21 6.48 6.9 13.18 13.63 20.18 19.98 11.44 10.38 22.37 10.47 33.7.42 5.6-4.96 10.7-10.49 16.11-15.69 5.39-5.18 10.59-10.47 12.68-18.26 11.98 11.14 13.93 25.92 3.63 38.13a384.62 384.62 0 0 1-46.85 46.76c-11.36 9.53-30.3 9.01-41.87-.57-15.51-12.83-29.91-27-43.18-42.1-11.71-13.33-11.38-32.97 1.15-46.59 16.81-18.28 34.28-36.06 52.6-52.81 15.35-14.04 46.21-12.96 61.31 1.52 19.64 18.84 38.46 38.53 57.58 57.9 1.07 1.09 1.72 2.59 2.82 4.29-3.74 6.68-9.91 11.11-14.96 16.47-13.37 14.2-13.25 27.24.56 41.26 1.11 1.12 2.22 2.25 3.35 3.35 16.5 16.05 25.8 15.46 39.51-2.51 5.19-6.8 5-13.76-.76-20.29-2.61-2.95-5.43-5.74-8.33-8.4-7.3-6.69-14.64-6.74-21.97-.19-2.35 2.1-4.46 4.47-6.74 6.65-1.95 1.87-3.98 3.66-6.88 6.3-2.9-7.91-.99-13.8 3.69-18.84 10.47-11.27 20.83-22.67 31.89-33.33 12.05-11.63 35.52-11.3 47.82.5 12.81 12.29 25.36 24.87 37.48 37.84 14.16 15.14 13.93 36.3-.48 51.15-13.24 13.57-27 26.59-41.22 40.36z" style="fill:#F2FDFF;"/><path d="M341.05 258.82c-7.12 12.19-17.08 20.59-26.97 28.87-6.36 5.33-14.12 4.89-20.55-.7-7.69-6.7-15.04-13.88-21.85-21.46-6.76-7.53-6.31-18.04.63-25.68 6.08-6.68 12.43-13.15 19.03-19.32 7.77-7.26 18.5-6.93 26.44.6 5.7 5.41 10.96 11.29 16.71 16.64 5.98 5.59 8.62 12.04 6.56 21.05zM165 202.67c.26 10.93-14.13 29.55-23.29 31.42-10.31 2.1-31.27-17.26-30.18-27.82.39-3.73 2.13-6.73 4.68-9.28 4.45-4.45 8.8-9.02 13.54-13.14 5.98-5.18 12.24-5.34 17.95.02 6 5.62 12.34 11.01 17.3 18.8zM421.14 315.83c-1.57 2.32-2.81 3.82-4.08 5.31-10.88 12.76-16.53 8.88-26.83-3.57-2.83-3.41-2.44-7.56.54-10.74 4.4-4.7 7.79-11.43 15.77-10.55 6.27.7 13.72 10.45 14.6 19.55zM80.15 310.19c.82 8.34-6.95 19.3-13.65 20.57-5.24.99-16.26-7.89-18.19-14.53-.87-2.99.03-5.39 2.09-7.45 2.21-2.21 4.41-4.45 6.79-6.47 6.81-5.78 9.17-5.69 15.9.56 2.29 2.11 4.39 4.44 7.06 7.32z" style="fill:#F2FDFF;"/></g></svg>
